<svg width="88" height="26" viewBox="0 0 88 26" fill="none" xmlns="http://www.w3.org/2000/svg">
<path d="M5.80039 2.132C4.70794 2.16667 3.86693 2.58267 3.27735 3.38C2.70512 4.17733 2.419 5.55533 2.419 7.514C2.419 8.15533 2.47969 8.606 2.60107 8.866C2.72246 9.10867 2.78315 9.24733 2.78315 9.282C1.84676 9.282 1.14447 9.09133 0.676279 8.71C0.225426 8.31133 0 7.66133 0 6.76C0 5.52933 0.303459 4.41133 0.910376 3.406C1.51729 2.38333 2.47969 1.56 3.79757 0.936C5.13278 0.312 6.82348 0 8.86966 0C9.28583 0 9.84073 0.0433333 10.5343 0.13C11.7829 0.251334 12.6672 0.312001 13.1874 0.312001C14.1065 0.312001 14.8868 0.208 15.5284 0C15.4764 0.156 15.381 0.502667 15.2423 1.04C15.1036 1.56 14.8521 2.01067 14.488 2.392C14.1412 2.756 13.6643 2.99867 13.0574 3.12C12.0343 3.12 10.8205 2.95533 9.41588 2.626L8.32343 7.8H12.121L11.7048 9.724H7.90726L5.80039 19.5H2.05485L5.80039 2.132Z" fill="black"/>
<path d="M15.502 19.604C14.2188 19.604 13.2044 19.2747 12.4587 18.616C11.7131 17.9573 11.3403 16.9173 11.3403 15.496C11.3403 14.3173 11.583 13.0087 12.0686 11.57C12.5541 10.1313 13.3344 8.892 14.4095 7.852C15.4846 6.79467 16.8372 6.266 18.4672 6.266C20.6868 6.266 21.7966 7.65267 21.7966 10.426V10.452C21.8486 10.4693 21.944 10.478 22.0827 10.478C22.6549 10.478 23.3139 10.3307 24.0595 10.036C24.8052 9.724 25.4814 9.35133 26.0884 8.918L26.3225 9.62C25.8196 10.1573 25.1606 10.6167 24.3456 10.998C23.548 11.362 22.6723 11.622 21.7186 11.778C21.5798 13.3553 21.2244 14.7333 20.6521 15.912C20.0799 17.0907 19.3429 18.0007 18.4412 18.642C17.5395 19.2833 16.5598 19.604 15.502 19.604ZM16.5424 17.264C16.9586 17.264 17.3748 17.03 17.7909 16.562C18.2071 16.0767 18.5713 15.4267 18.8834 14.612C19.1955 13.78 19.4209 12.8613 19.5597 11.856C19.0915 11.752 18.8574 11.388 18.8574 10.764C18.8574 10.0533 19.1262 9.58533 19.6637 9.36C19.629 8.788 19.5423 8.398 19.4036 8.19C19.2649 7.96467 19.0221 7.852 18.6753 7.852C18.1031 7.852 17.5482 8.268 17.0106 9.1C16.4731 9.932 16.0395 10.9287 15.7101 12.09C15.3806 13.2513 15.2159 14.274 15.2159 15.158C15.2159 15.99 15.3112 16.5533 15.502 16.848C15.6927 17.1253 16.0395 17.264 16.5424 17.264Z" fill="black"/>
<path d="M26.9325 19.604C25.6493 19.604 24.6349 19.2747 23.8892 18.616C23.1436 17.9573 22.7708 16.9173 22.7708 15.496C22.7708 14.3173 23.0135 13.0087 23.4991 11.57C23.9846 10.1313 24.7649 8.892 25.84 7.852C26.9151 6.79467 28.2677 6.266 29.8977 6.266C32.1173 6.266 33.2271 7.65267 33.2271 10.426V10.452C33.2791 10.4693 33.3745 10.478 33.5132 10.478C34.0854 10.478 34.7444 10.3307 35.49 10.036C36.2357 9.724 36.9119 9.35133 37.5189 8.918L37.753 9.62C37.2501 10.1573 36.5911 10.6167 35.7761 10.998C34.9785 11.362 34.1028 11.622 33.1491 11.778C33.0103 13.3553 32.6549 14.7333 32.0826 15.912C31.5104 17.0907 30.7734 18.0007 29.8717 18.642C28.97 19.2833 27.9903 19.604 26.9325 19.604ZM27.9729 17.264C28.3891 17.264 28.8053 17.03 29.2214 16.562C29.6376 16.0767 30.0018 15.4267 30.3139 14.612C30.626 13.78 30.8514 12.8613 30.9902 11.856C30.522 11.752 30.2879 11.388 30.2879 10.764C30.2879 10.0533 30.5566 9.58533 31.0942 9.36C31.0595 8.788 30.9728 8.398 30.8341 8.19C30.6954 7.96467 30.4526 7.852 30.1058 7.852C29.5336 7.852 28.9787 8.268 28.4411 9.1C27.9036 9.932 27.47 10.9287 27.1406 12.09C26.8111 13.2513 26.6464 14.274 26.6464 15.158C26.6464 15.99 26.7417 16.5533 26.9325 16.848C27.1232 17.1253 27.47 17.264 27.9729 17.264Z" fill="black"/>
<path d="M37.6867 19.656C36.6983 19.656 35.8746 19.318 35.2157 18.642C34.5567 17.966 34.2273 16.9087 34.2273 15.47C34.2273 14.1873 34.4787 12.844 34.9816 11.44C35.5018 10.0187 36.2648 8.82267 37.2705 7.852C38.2936 6.864 39.5075 6.37 40.912 6.37C41.623 6.37 42.1519 6.49133 42.4987 6.734C42.8455 6.97667 43.0189 7.29733 43.0189 7.696V7.8L44.2934 1.82L48.143 1.3L45.1518 15.34C45.0824 15.6 45.0477 15.8513 45.0477 16.094C45.0477 16.7873 45.4032 17.134 46.1142 17.134C46.4263 17.134 46.7038 17.082 46.9465 16.978C46.8772 17.8447 46.565 18.512 46.0101 18.98C45.4726 19.4307 44.831 19.656 44.0853 19.656C43.3917 19.656 42.8021 19.4827 42.3166 19.136C41.8484 18.772 41.5363 18.226 41.3802 17.498C40.3398 18.9367 39.1086 19.656 37.6867 19.656ZM39.3774 17.134C39.7589 17.134 40.1404 16.9693 40.5219 16.64C40.9207 16.3107 41.2155 15.8513 41.4062 15.262L41.5103 14.846L42.7848 8.892C42.6287 8.28533 42.2733 7.982 41.7184 7.982C41.0247 7.982 40.4005 8.38933 39.8456 9.204C39.2907 10.0013 38.8572 10.972 38.5451 12.116C38.2329 13.2427 38.0769 14.2393 38.0769 15.106C38.0769 15.9727 38.1983 16.5273 38.441 16.77C38.7011 17.0127 39.0133 17.134 39.3774 17.134Z" fill="black"/>
<path d="M52.6061 22.464C51.9645 22.464 51.4009 22.412 50.9154 22.308C50.4299 22.204 50.005 21.9527 49.6409 21.554C49.2941 21.1553 49.1207 20.54 49.1207 19.708C49.1207 18.5467 49.4675 16.9867 50.1611 15.028C50.872 13.0693 51.7998 11.102 52.9442 9.126C52.0772 9.178 51.3923 9.308 50.8894 9.516C50.3865 9.724 50.057 10.0447 49.901 10.478C49.9703 10.478 50.0397 10.5647 50.1091 10.738C50.1958 10.9113 50.2391 11.0933 50.2391 11.284C50.2391 11.596 50.1004 11.8473 49.8229 12.038C49.5455 12.2113 49.1987 12.298 48.7825 12.298C48.297 12.298 47.9068 12.168 47.612 11.908C47.3172 11.648 47.1699 11.2753 47.1699 10.79C47.1699 10.2007 47.3953 9.66333 47.8461 9.178C48.3143 8.69267 48.9559 8.31133 49.7709 8.034C50.5859 7.73933 51.4876 7.592 52.476 7.592C52.8402 7.592 53.291 7.618 53.8286 7.67C55.2505 5.41667 56.7505 3.57933 58.3285 2.158C59.9238 0.719333 61.4411 0 62.8803 0C63.7127 0 64.3976 0.121333 64.9352 0.364L60.8515 19.5H57.106L59.1088 10.062C58.4672 9.76733 57.8776 9.55067 57.34 9.412C56.8025 9.27333 56.2303 9.178 55.6233 9.126C54.6349 11.258 53.8199 13.442 53.1783 15.678C52.5541 17.8967 52.2419 19.6733 52.2419 21.008C52.2419 21.6667 52.3633 22.152 52.6061 22.464ZM60.8515 1.846C60.1059 2.24467 59.3255 2.99 58.5105 4.082C57.7129 5.15667 56.9325 6.46533 56.1696 8.008C57.4181 8.25067 58.4759 8.554 59.3429 8.918L60.8515 1.846Z" fill="black"/>
<path d="M66.2869 5.538H70.0325L69.6163 7.488C70.4833 6.74267 71.4977 6.37 72.6596 6.37C73.6306 6.37 74.4023 6.69067 74.9745 7.332C75.5468 7.97333 75.8329 9.022 75.8329 10.478C75.8329 11.8473 75.6335 13.234 75.2346 14.638C74.8358 16.0247 74.1595 17.212 73.2058 18.2C72.2521 19.1707 70.9949 19.656 69.4342 19.656C68.3244 19.656 67.5875 19.344 67.2233 18.72L65.8708 25.064L61.9431 26L66.2869 5.538ZM68.6279 17.394C69.4602 17.394 70.1452 17.004 70.6827 16.224C71.2376 15.444 71.6365 14.5167 71.8792 13.442C72.1393 12.35 72.2694 11.336 72.2694 10.4C72.2694 8.96133 71.8359 8.242 70.9689 8.242C70.6567 8.242 70.3359 8.35467 70.0065 8.58C69.6943 8.80533 69.4169 9.11733 69.1741 9.516L67.6395 16.796C67.7782 17.1947 68.1077 17.394 68.6279 17.394Z" fill="black"/>
<path d="M78.4541 5.538H82.1996L81.7834 7.488C82.6505 6.74267 83.6649 6.37 84.8267 6.37C85.7978 6.37 86.5694 6.69067 87.1416 7.332C87.7139 7.97333 88 9.022 88 10.478C88 11.8473 87.8006 13.234 87.4017 14.638C87.0029 16.0247 86.3266 17.212 85.3729 18.2C84.4192 19.1707 83.162 19.656 81.6014 19.656C80.4916 19.656 79.7546 19.344 79.3904 18.72L78.0379 25.064L74.1103 26L78.4541 5.538ZM80.795 17.394C81.6274 17.394 82.3123 17.004 82.8499 16.224C83.4048 15.444 83.8036 14.5167 84.0464 13.442C84.3065 12.35 84.4365 11.336 84.4365 10.4C84.4365 8.96133 84.003 8.242 83.136 8.242C82.8239 8.242 82.5031 8.35467 82.1736 8.58C81.8615 8.80533 81.584 9.11733 81.3413 9.516L79.8066 16.796C79.9453 17.1947 80.2748 17.394 80.795 17.394Z" fill="black"/>
</svg>
