<svg width="73" height="73" viewBox="0 0 73 73" fill="none" xmlns="http://www.w3.org/2000/svg">
<circle cx="36.5" cy="36.5" r="36.5" fill="#E3512A"/>
<path d="M22.2187 52.75L20.3812 50.9125L38.7562 32.5375C38.1146 31.1375 37.9687 29.6865 38.3187 28.1844C38.6687 26.6823 39.5 25.275 40.8125 23.9625C42.125 22.6792 43.7146 21.8552 45.5812 21.4906C47.4479 21.126 48.9792 21.5417 50.175 22.7375C51.4 23.9625 51.8156 25.4938 51.4219 27.3313C51.0281 29.1688 50.1458 30.7875 48.775 32.1875C47.5792 33.4125 46.2448 34.2146 44.7719 34.5938C43.299 34.9729 41.9208 34.8854 40.6375 34.3313L37.7062 37.2625L51.3562 50.9125L49.5187 52.75L35.8687 39.1L22.2187 52.75ZM27.6875 37.3938L22.4812 32.1875C20.9937 30.7 20.2208 28.9354 20.1625 26.8938C20.1042 24.8521 20.775 23.0438 22.175 21.4688L32.8937 32.1875L27.6875 37.3938Z" fill="#EADECE"/>
</svg>
